<svg xmlns="http://www.w3.org/2000/svg" width="1000" height="620" viewBox="0 0 1000 620">
<rect width="100%" height="100%" fill="#f6f8fb" />
<text x="500.0" y="34" text-anchor="middle" font-size="22" font-weight="700" font-family="sans-serif" fill="#17212b">Accuracy by Negation Count</text>
<line x1="40" y1="62" x2="60" y2="62" stroke="hsl(0 60% 42%)" stroke-width="3" stroke-linecap="round" />
<circle cx="50" cy="62" r="3" fill="hsl(0 60% 42%)" />
<text x="68" y="66" font-size="12" font-family="sans-serif" fill="#1d2630">openai/gpt-5.5-pro</text>
<line x1="208" y1="62" x2="228" y2="62" stroke="hsl(67 60% 42%)" stroke-width="3" stroke-linecap="round" />
<circle cx="218" cy="62" r="3" fill="hsl(67 60% 42%)" />
<text x="236" y="66" font-size="12" font-family="sans-serif" fill="#1d2630">anthropic/claude-opus-4.7</text>
<line x1="425" y1="62" x2="445" y2="62" stroke="hsl(134 60% 42%)" stroke-width="3" stroke-linecap="round" />
<circle cx="435" cy="62" r="3" fill="hsl(134 60% 42%)" />
<text x="453" y="66" font-size="12" font-family="sans-serif" fill="#1d2630">moonshotai/kimi-k2.6</text>
<line x1="607" y1="62" x2="627" y2="62" stroke="hsl(201 60% 42%)" stroke-width="3" stroke-linecap="round" />
<circle cx="617" cy="62" r="3" fill="hsl(201 60% 42%)" />
<text x="635" y="66" font-size="12" font-family="sans-serif" fill="#1d2630">google/gemini-3.5-flash</text>
<rect x="30" y="88" width="940" height="512" rx="10" fill="#ffffff" stroke="#d6dee8" />
<text x="500.0" y="108" text-anchor="middle" font-size="14" font-weight="600" font-family="sans-serif" fill="#1d2630"></text>
<line x1="78" y1="544.0" x2="954" y2="544.0" stroke="#ebeff5" stroke-width="1" />
<text x="70" y="548.0" text-anchor="end" font-size="11" font-family="sans-serif" fill="#5a6773">0</text>
<line x1="78" y1="438.0" x2="954" y2="438.0" stroke="#ebeff5" stroke-width="1" />
<text x="70" y="442.0" text-anchor="end" font-size="11" font-family="sans-serif" fill="#5a6773">25</text>
<line x1="78" y1="332.0" x2="954" y2="332.0" stroke="#ebeff5" stroke-width="1" />
<text x="70" y="336.0" text-anchor="end" font-size="11" font-family="sans-serif" fill="#5a6773">50</text>
<line x1="78" y1="226.0" x2="954" y2="226.0" stroke="#ebeff5" stroke-width="1" />
<text x="70" y="230.0" text-anchor="end" font-size="11" font-family="sans-serif" fill="#5a6773">75</text>
<line x1="78" y1="120.0" x2="954" y2="120.0" stroke="#ebeff5" stroke-width="1" />
<text x="70" y="124.0" text-anchor="end" font-size="11" font-family="sans-serif" fill="#5a6773">100</text>
<line x1="78" y1="120" x2="78" y2="544" stroke="#8fa0b4" />
<line x1="78" y1="544" x2="954" y2="544" stroke="#8fa0b4" />
<line x1="78.0" y1="544" x2="78.0" y2="548" stroke="#8fa0b4" />
<text x="78.0" y="562" text-anchor="middle" font-size="10" font-family="sans-serif" fill="#5a6773">50</text>
<line x1="175.33333333333331" y1="544" x2="175.33333333333331" y2="548" stroke="#8fa0b4" />
<text x="175.33333333333331" y="562" text-anchor="middle" font-size="10" font-family="sans-serif" fill="#5a6773">51</text>
<line x1="272.66666666666663" y1="544" x2="272.66666666666663" y2="548" stroke="#8fa0b4" />
<text x="272.66666666666663" y="562" text-anchor="middle" font-size="10" font-family="sans-serif" fill="#5a6773">100</text>
<line x1="370.0" y1="544" x2="370.0" y2="548" stroke="#8fa0b4" />
<text x="370.0" y="562" text-anchor="middle" font-size="10" font-family="sans-serif" fill="#5a6773">101</text>
<line x1="467.3333333333333" y1="544" x2="467.3333333333333" y2="548" stroke="#8fa0b4" />
<text x="467.3333333333333" y="562" text-anchor="middle" font-size="10" font-family="sans-serif" fill="#5a6773">500</text>
<line x1="564.6666666666666" y1="544" x2="564.6666666666666" y2="548" stroke="#8fa0b4" />
<text x="564.6666666666666" y="562" text-anchor="middle" font-size="10" font-family="sans-serif" fill="#5a6773">501</text>
<line x1="662.0" y1="544" x2="662.0" y2="548" stroke="#8fa0b4" />
<text x="662.0" y="562" text-anchor="middle" font-size="10" font-family="sans-serif" fill="#5a6773">1000</text>
<line x1="759.3333333333333" y1="544" x2="759.3333333333333" y2="548" stroke="#8fa0b4" />
<text x="759.3333333333333" y="562" text-anchor="middle" font-size="10" font-family="sans-serif" fill="#5a6773">1001</text>
<line x1="856.6666666666666" y1="544" x2="856.6666666666666" y2="548" stroke="#8fa0b4" />
<text x="856.6666666666666" y="562" text-anchor="middle" font-size="10" font-family="sans-serif" fill="#5a6773">10000</text>
<line x1="954.0" y1="544" x2="954.0" y2="548" stroke="#8fa0b4" />
<text x="954.0" y="562" text-anchor="middle" font-size="10" font-family="sans-serif" fill="#5a6773">10001</text>
<circle cx="78.00" cy="120.00" r="2.8" fill="hsl(0 60% 42%)" />
<circle cx="175.33" cy="120.00" r="2.8" fill="hsl(0 60% 42%)" />
<circle cx="272.67" cy="120.00" r="2.8" fill="hsl(0 60% 42%)" />
<circle cx="370.00" cy="120.00" r="2.8" fill="hsl(0 60% 42%)" />
<circle cx="467.33" cy="120.00" r="2.8" fill="hsl(0 60% 42%)" />
<circle cx="564.67" cy="120.00" r="2.8" fill="hsl(0 60% 42%)" />
<circle cx="662.00" cy="120.00" r="2.8" fill="hsl(0 60% 42%)" />
<circle cx="759.33" cy="120.00" r="2.8" fill="hsl(0 60% 42%)" />
<circle cx="856.67" cy="120.00" r="2.8" fill="hsl(0 60% 42%)" />
<circle cx="954.00" cy="120.00" r="2.8" fill="hsl(0 60% 42%)" />
<path d="M 78.00 120.00 L 175.33 120.00 L 272.67 120.00 L 370.00 120.00 L 467.33 120.00 L 564.67 120.00 L 662.00 120.00 L 759.33 120.00 L 856.67 120.00 L 954.00 120.00" fill="none" stroke="hsl(0 60% 42%)" stroke-width="2.4" stroke-linecap="round" stroke-linejoin="round" />
<circle cx="78.00" cy="120.00" r="2.8" fill="hsl(67 60% 42%)" />
<circle cx="175.33" cy="120.00" r="2.8" fill="hsl(67 60% 42%)" />
<circle cx="272.67" cy="120.00" r="2.8" fill="hsl(67 60% 42%)" />
<circle cx="370.00" cy="120.00" r="2.8" fill="hsl(67 60% 42%)" />
<circle cx="467.33" cy="120.00" r="2.8" fill="hsl(67 60% 42%)" />
<circle cx="564.67" cy="120.00" r="2.8" fill="hsl(67 60% 42%)" />
<circle cx="662.00" cy="544.00" r="2.8" fill="hsl(67 60% 42%)" />
<circle cx="759.33" cy="120.00" r="2.8" fill="hsl(67 60% 42%)" />
<circle cx="856.67" cy="120.00" r="2.8" fill="hsl(67 60% 42%)" />
<circle cx="954.00" cy="120.00" r="2.8" fill="hsl(67 60% 42%)" />
<path d="M 78.00 120.00 L 175.33 120.00 L 272.67 120.00 L 370.00 120.00 L 467.33 120.00 L 564.67 120.00 L 662.00 544.00 L 759.33 120.00 L 856.67 120.00 L 954.00 120.00" fill="none" stroke="hsl(67 60% 42%)" stroke-width="2.4" stroke-linecap="round" stroke-linejoin="round" />
<circle cx="78.00" cy="120.00" r="2.8" fill="hsl(134 60% 42%)" />
<circle cx="175.33" cy="120.00" r="2.8" fill="hsl(134 60% 42%)" />
<circle cx="272.67" cy="120.00" r="2.8" fill="hsl(134 60% 42%)" />
<circle cx="370.00" cy="120.00" r="2.8" fill="hsl(134 60% 42%)" />
<circle cx="467.33" cy="120.00" r="2.8" fill="hsl(134 60% 42%)" />
<circle cx="564.67" cy="120.00" r="2.8" fill="hsl(134 60% 42%)" />
<circle cx="662.00" cy="120.00" r="2.8" fill="hsl(134 60% 42%)" />
<circle cx="759.33" cy="120.00" r="2.8" fill="hsl(134 60% 42%)" />
<circle cx="856.67" cy="120.00" r="2.8" fill="hsl(134 60% 42%)" />
<circle cx="954.00" cy="120.00" r="2.8" fill="hsl(134 60% 42%)" />
<path d="M 78.00 120.00 L 175.33 120.00 L 272.67 120.00 L 370.00 120.00 L 467.33 120.00 L 564.67 120.00 L 662.00 120.00 L 759.33 120.00 L 856.67 120.00 L 954.00 120.00" fill="none" stroke="hsl(134 60% 42%)" stroke-width="2.4" stroke-linecap="round" stroke-linejoin="round" />
<circle cx="78.00" cy="120.00" r="2.8" fill="hsl(201 60% 42%)" />
<circle cx="175.33" cy="120.00" r="2.8" fill="hsl(201 60% 42%)" />
<circle cx="272.67" cy="120.00" r="2.8" fill="hsl(201 60% 42%)" />
<circle cx="370.00" cy="120.00" r="2.8" fill="hsl(201 60% 42%)" />
<circle cx="467.33" cy="120.00" r="2.8" fill="hsl(201 60% 42%)" />
<circle cx="564.67" cy="120.00" r="2.8" fill="hsl(201 60% 42%)" />
<circle cx="662.00" cy="120.00" r="2.8" fill="hsl(201 60% 42%)" />
<circle cx="759.33" cy="120.00" r="2.8" fill="hsl(201 60% 42%)" />
<circle cx="856.67" cy="120.00" r="2.8" fill="hsl(201 60% 42%)" />
<circle cx="954.00" cy="120.00" r="2.8" fill="hsl(201 60% 42%)" />
<path d="M 78.00 120.00 L 175.33 120.00 L 272.67 120.00 L 370.00 120.00 L 467.33 120.00 L 564.67 120.00 L 662.00 120.00 L 759.33 120.00 L 856.67 120.00 L 954.00 120.00" fill="none" stroke="hsl(201 60% 42%)" stroke-width="2.4" stroke-linecap="round" stroke-linejoin="round" />
<text x="44" y="344.0" transform="rotate(-90 44 344.0)" text-anchor="middle" font-size="11" font-family="sans-serif" fill="#5a6773">% Correct</text>
</svg>