<svg xmlns="http://www.w3.org/2000/svg" width="1400" height="1200" viewBox="0 0 1400 1200">
<rect width="100%" height="100%" fill="#f6f8fb" />
<text x="700.0" y="34" text-anchor="middle" font-size="24" font-weight="700" font-family="sans-serif" fill="#17212b">Thinking-Token Growth Across Negation Investigations</text>
<line x1="40" y1="62" x2="60" y2="62" stroke="#0b3c5d" stroke-width="3" stroke-linecap="round" />
<circle cx="50" cy="62" r="3" fill="#0b3c5d" />
<text x="68" y="66" font-size="12" font-family="sans-serif" fill="#1d2630">GPT-5.5-Pro</text>
<line x1="159" y1="62" x2="179" y2="62" stroke="#b33f62" stroke-width="3" stroke-linecap="round" />
<circle cx="169" cy="62" r="3" fill="#b33f62" />
<text x="187" y="66" font-size="12" font-family="sans-serif" fill="#1d2630">Claude Opus 4.7</text>
<line x1="306" y1="62" x2="326" y2="62" stroke="#f18f01" stroke-width="3" stroke-linecap="round" />
<circle cx="316" cy="62" r="3" fill="#f18f01" />
<text x="334" y="66" font-size="12" font-family="sans-serif" fill="#1d2630">Kimi K2.6</text>
<line x1="411" y1="62" x2="431" y2="62" stroke="#2a9d8f" stroke-width="3" stroke-linecap="round" />
<circle cx="421" cy="62" r="3" fill="#2a9d8f" />
<text x="439" y="66" font-size="12" font-family="sans-serif" fill="#1d2630">Gemini 3.5 Flash</text>
<rect x="20.0" y="90.0" width="658.0" height="343.3333333333333" rx="10" fill="#ffffff" stroke="#d6dee8" />
<text x="349.0" y="110.0" text-anchor="middle" font-size="14" font-weight="600" font-family="sans-serif" fill="#1d2630">Boolean Literal False Base (Clean)</text>
<line x1="68.0" y1="377.3333333333333" x2="662.0" y2="377.3333333333333" stroke="#ebeff5" stroke-width="1" />
<text x="60.0" y="381.3333333333333" text-anchor="end" font-size="11" font-family="sans-serif" fill="#5a6773">10</text>
<line x1="68.0" y1="317.2861928825077" x2="662.0" y2="317.2861928825077" stroke="#ebeff5" stroke-width="1" />
<text x="60.0" y="321.2861928825077" text-anchor="end" font-size="11" font-family="sans-serif" fill="#5a6773">100</text>
<line x1="68.0" y1="234.0315096977416" x2="662.0" y2="234.0315096977416" stroke="#ebeff5" stroke-width="1" />
<text x="60.0" y="238.0315096977416" text-anchor="end" font-size="11" font-family="sans-serif" fill="#5a6773">1000</text>
<line x1="68.0" y1="150.77682651297553" x2="662.0" y2="150.77682651297553" stroke="#ebeff5" stroke-width="1" />
<text x="60.0" y="154.77682651297553" text-anchor="end" font-size="11" font-family="sans-serif" fill="#5a6773">10000</text>
<line x1="68.0" y1="67.52214332820944" x2="662.0" y2="67.52214332820944" stroke="#ebeff5" stroke-width="1" />
<text x="60.0" y="71.52214332820944" text-anchor="end" font-size="11" font-family="sans-serif" fill="#5a6773">100000</text>
<line x1="68.0" y1="122.0" x2="68.0" y2="377.3333333333333" stroke="#8fa0b4" />
<line x1="68.0" y1="377.3333333333333" x2="662.0" y2="377.3333333333333" stroke="#8fa0b4" />
<line x1="68.0" y1="377.3333333333333" x2="68.0" y2="381.3333333333333" stroke="#8fa0b4" />
<text x="68.0" y="395.3333333333333" text-anchor="middle" font-size="10" font-family="sans-serif" fill="#5a6773">0</text>
<line x1="93.82608695652173" y1="377.3333333333333" x2="93.82608695652173" y2="381.3333333333333" stroke="#8fa0b4" />
<text x="93.82608695652173" y="395.3333333333333" text-anchor="middle" font-size="10" font-family="sans-serif" fill="#5a6773">1</text>
<line x1="119.65217391304347" y1="377.3333333333333" x2="119.65217391304347" y2="381.3333333333333" stroke="#8fa0b4" />
<text x="119.65217391304347" y="395.3333333333333" text-anchor="middle" font-size="10" font-family="sans-serif" fill="#5a6773">2</text>
<line x1="145.47826086956522" y1="377.3333333333333" x2="145.47826086956522" y2="381.3333333333333" stroke="#8fa0b4" />
<text x="145.47826086956522" y="395.3333333333333" text-anchor="middle" font-size="10" font-family="sans-serif" fill="#5a6773">3</text>
<line x1="171.30434782608694" y1="377.3333333333333" x2="171.30434782608694" y2="381.3333333333333" stroke="#8fa0b4" />
<text x="171.30434782608694" y="395.3333333333333" text-anchor="middle" font-size="10" font-family="sans-serif" fill="#5a6773">4</text>
<line x1="197.1304347826087" y1="377.3333333333333" x2="197.1304347826087" y2="381.3333333333333" stroke="#8fa0b4" />
<text x="197.1304347826087" y="395.3333333333333" text-anchor="middle" font-size="10" font-family="sans-serif" fill="#5a6773">5</text>
<line x1="222.95652173913044" y1="377.3333333333333" x2="222.95652173913044" y2="381.3333333333333" stroke="#8fa0b4" />
<text x="222.95652173913044" y="395.3333333333333" text-anchor="middle" font-size="10" font-family="sans-serif" fill="#5a6773">6</text>
<line x1="248.78260869565216" y1="377.3333333333333" x2="248.78260869565216" y2="381.3333333333333" stroke="#8fa0b4" />
<text x="248.78260869565216" y="395.3333333333333" text-anchor="middle" font-size="10" font-family="sans-serif" fill="#5a6773">7</text>
<line x1="274.6086956521739" y1="377.3333333333333" x2="274.6086956521739" y2="381.3333333333333" stroke="#8fa0b4" />
<text x="274.6086956521739" y="395.3333333333333" text-anchor="middle" font-size="10" font-family="sans-serif" fill="#5a6773">8</text>
<line x1="300.4347826086956" y1="377.3333333333333" x2="300.4347826086956" y2="381.3333333333333" stroke="#8fa0b4" />
<text x="300.4347826086956" y="395.3333333333333" text-anchor="middle" font-size="10" font-family="sans-serif" fill="#5a6773">9</text>
<line x1="326.2608695652174" y1="377.3333333333333" x2="326.2608695652174" y2="381.3333333333333" stroke="#8fa0b4" />
<text x="326.2608695652174" y="395.3333333333333" text-anchor="middle" font-size="10" font-family="sans-serif" fill="#5a6773">10</text>
<line x1="352.0869565217391" y1="377.3333333333333" x2="352.0869565217391" y2="381.3333333333333" stroke="#8fa0b4" />
<text x="352.0869565217391" y="395.3333333333333" text-anchor="middle" font-size="10" font-family="sans-serif" fill="#5a6773">11</text>
<line x1="377.9130434782609" y1="377.3333333333333" x2="377.9130434782609" y2="381.3333333333333" stroke="#8fa0b4" />
<text x="377.9130434782609" y="395.3333333333333" text-anchor="middle" font-size="10" font-family="sans-serif" fill="#5a6773">12</text>
<line x1="403.7391304347826" y1="377.3333333333333" x2="403.7391304347826" y2="381.3333333333333" stroke="#8fa0b4" />
<text x="403.7391304347826" y="395.3333333333333" text-anchor="middle" font-size="10" font-family="sans-serif" fill="#5a6773">13</text>
<line x1="429.5652173913043" y1="377.3333333333333" x2="429.5652173913043" y2="381.3333333333333" stroke="#8fa0b4" />
<text x="429.5652173913043" y="395.3333333333333" text-anchor="middle" font-size="10" font-family="sans-serif" fill="#5a6773">14</text>
<line x1="455.39130434782606" y1="377.3333333333333" x2="455.39130434782606" y2="381.3333333333333" stroke="#8fa0b4" />
<text x="455.39130434782606" y="395.3333333333333" text-anchor="middle" font-size="10" font-family="sans-serif" fill="#5a6773">15</text>
<line x1="481.2173913043478" y1="377.3333333333333" x2="481.2173913043478" y2="381.3333333333333" stroke="#8fa0b4" />
<text x="481.2173913043478" y="395.3333333333333" text-anchor="middle" font-size="10" font-family="sans-serif" fill="#5a6773">16</text>
<line x1="507.04347826086956" y1="377.3333333333333" x2="507.04347826086956" y2="381.3333333333333" stroke="#8fa0b4" />
<text x="507.04347826086956" y="395.3333333333333" text-anchor="middle" font-size="10" font-family="sans-serif" fill="#5a6773">17</text>
<line x1="532.8695652173913" y1="377.3333333333333" x2="532.8695652173913" y2="381.3333333333333" stroke="#8fa0b4" />
<text x="532.8695652173913" y="395.3333333333333" text-anchor="middle" font-size="10" font-family="sans-serif" fill="#5a6773">18</text>
<line x1="558.695652173913" y1="377.3333333333333" x2="558.695652173913" y2="381.3333333333333" stroke="#8fa0b4" />
<text x="558.695652173913" y="395.3333333333333" text-anchor="middle" font-size="10" font-family="sans-serif" fill="#5a6773">19</text>
<line x1="584.5217391304348" y1="377.3333333333333" x2="584.5217391304348" y2="381.3333333333333" stroke="#8fa0b4" />
<text x="584.5217391304348" y="395.3333333333333" text-anchor="middle" font-size="10" font-family="sans-serif" fill="#5a6773">20</text>
<line x1="610.3478260869565" y1="377.3333333333333" x2="610.3478260869565" y2="381.3333333333333" stroke="#8fa0b4" />
<text x="610.3478260869565" y="395.3333333333333" text-anchor="middle" font-size="10" font-family="sans-serif" fill="#5a6773">50</text>
<line x1="636.1739130434783" y1="377.3333333333333" x2="636.1739130434783" y2="381.3333333333333" stroke="#8fa0b4" />
<text x="636.1739130434783" y="395.3333333333333" text-anchor="middle" font-size="10" font-family="sans-serif" fill="#5a6773">51</text>
<line x1="662.0" y1="377.3333333333333" x2="662.0" y2="381.3333333333333" stroke="#8fa0b4" />
<text x="662.0" y="395.3333333333333" text-anchor="middle" font-size="10" font-family="sans-serif" fill="#5a6773">100</text>
<circle cx="68.00" cy="303.36" r="2.8" fill="#0b3c5d" />
<circle cx="93.83" cy="332.86" r="2.8" fill="#0b3c5d" />
<circle cx="119.65" cy="320.70" r="2.8" fill="#0b3c5d" />
<circle cx="145.48" cy="305.12" r="2.8" fill="#0b3c5d" />
<circle cx="171.30" cy="321.50" r="2.8" fill="#0b3c5d" />
<circle cx="197.13" cy="314.84" r="2.8" fill="#0b3c5d" />
<circle cx="222.96" cy="316.57" r="2.8" fill="#0b3c5d" />
<circle cx="248.78" cy="301.91" r="2.8" fill="#0b3c5d" />
<circle cx="274.61" cy="319.14" r="2.8" fill="#0b3c5d" />
<circle cx="300.43" cy="306.44" r="2.8" fill="#0b3c5d" />
<circle cx="326.26" cy="314.50" r="2.8" fill="#0b3c5d" />
<circle cx="352.09" cy="306.70" r="2.8" fill="#0b3c5d" />
<circle cx="377.91" cy="299.18" r="2.8" fill="#0b3c5d" />
<circle cx="403.74" cy="305.12" r="2.8" fill="#0b3c5d" />
<circle cx="429.57" cy="302.15" r="2.8" fill="#0b3c5d" />
<circle cx="455.39" cy="294.27" r="2.8" fill="#0b3c5d" />
<circle cx="481.22" cy="301.91" r="2.8" fill="#0b3c5d" />
<circle cx="507.04" cy="271.89" r="2.8" fill="#0b3c5d" />
<circle cx="532.87" cy="295.04" r="2.8" fill="#0b3c5d" />
<circle cx="558.70" cy="268.17" r="2.8" fill="#0b3c5d" />
<circle cx="584.52" cy="286.09" r="2.8" fill="#0b3c5d" />
<circle cx="610.35" cy="240.25" r="2.8" fill="#0b3c5d" />
<circle cx="636.17" cy="206.52" r="2.8" fill="#0b3c5d" />
<circle cx="662.00" cy="205.15" r="2.8" fill="#0b3c5d" />
<path d="M 68.00 303.36 L 93.83 332.86 L 119.65 320.70 L 145.48 305.12 L 171.30 321.50 L 197.13 314.84 L 222.96 316.57 L 248.78 301.91 L 274.61 319.14 L 300.43 306.44 L 326.26 314.50 L 352.09 306.70 L 377.91 299.18 L 403.74 305.12 L 429.57 302.15 L 455.39 294.27 L 481.22 301.91 L 507.04 271.89 L 532.87 295.04 L 558.70 268.17 L 584.52 286.09 L 610.35 240.25 L 636.17 206.52 L 662.00 205.15" fill="none" stroke="#0b3c5d" stroke-width="2.4" stroke-linecap="round" stroke-linejoin="round" />
<circle cx="300.43" cy="355.24" r="2.8" fill="#b33f62" />
<circle cx="326.26" cy="368.89" r="2.8" fill="#b33f62" />
<circle cx="352.09" cy="368.89" r="2.8" fill="#b33f62" />
<circle cx="377.91" cy="346.16" r="2.8" fill="#b33f62" />
<circle cx="403.74" cy="357.37" r="2.8" fill="#b33f62" />
<circle cx="429.57" cy="377.33" r="2.8" fill="#b33f62" />
<circle cx="455.39" cy="350.42" r="2.8" fill="#b33f62" />
<circle cx="481.22" cy="372.03" r="2.8" fill="#b33f62" />
<circle cx="532.87" cy="346.16" r="2.8" fill="#b33f62" />
<circle cx="558.70" cy="339.57" r="2.8" fill="#b33f62" />
<circle cx="584.52" cy="352.27" r="2.8" fill="#b33f62" />
<circle cx="610.35" cy="332.31" r="2.8" fill="#b33f62" />
<circle cx="636.17" cy="359.63" r="2.8" fill="#b33f62" />
<circle cx="662.00" cy="266.45" r="2.8" fill="#b33f62" />
<path d="M 300.43 355.24 L 326.26 368.89 L 352.09 368.89 L 377.91 346.16 L 403.74 357.37 L 429.57 377.33 L 455.39 350.42 L 481.22 372.03 L 532.87 346.16 L 558.70 339.57 L 584.52 352.27 L 610.35 332.31 L 636.17 359.63 L 662.00 266.45" fill="none" stroke="#b33f62" stroke-width="2.4" stroke-linecap="round" stroke-linejoin="round" />
<circle cx="68.00" cy="276.97" r="2.8" fill="#f18f01" />
<circle cx="93.83" cy="324.91" r="2.8" fill="#f18f01" />
<circle cx="119.65" cy="320.70" r="2.8" fill="#f18f01" />
<circle cx="145.48" cy="290.46" r="2.8" fill="#f18f01" />
<circle cx="171.30" cy="258.95" r="2.8" fill="#f18f01" />
<circle cx="197.13" cy="263.31" r="2.8" fill="#f18f01" />
<circle cx="222.96" cy="262.58" r="2.8" fill="#f18f01" />
<circle cx="248.78" cy="283.16" r="2.8" fill="#f18f01" />
<circle cx="274.61" cy="258.10" r="2.8" fill="#f18f01" />
<circle cx="300.43" cy="272.93" r="2.8" fill="#f18f01" />
<circle cx="326.26" cy="271.89" r="2.8" fill="#f18f01" />
<circle cx="352.09" cy="278.54" r="2.8" fill="#f18f01" />
<circle cx="377.91" cy="243.62" r="2.8" fill="#f18f01" />
<circle cx="403.74" cy="266.62" r="2.8" fill="#f18f01" />
<circle cx="429.57" cy="256.85" r="2.8" fill="#f18f01" />
<circle cx="455.39" cy="278.05" r="2.8" fill="#f18f01" />
<circle cx="481.22" cy="266.09" r="2.8" fill="#f18f01" />
<circle cx="507.04" cy="246.47" r="2.8" fill="#f18f01" />
<circle cx="532.87" cy="231.72" r="2.8" fill="#f18f01" />
<circle cx="558.70" cy="232.37" r="2.8" fill="#f18f01" />
<circle cx="584.52" cy="244.92" r="2.8" fill="#f18f01" />
<circle cx="610.35" cy="186.13" r="2.8" fill="#f18f01" />
<circle cx="636.17" cy="122.00" r="2.8" fill="#f18f01" />
<circle cx="662.00" cy="132.39" r="2.8" fill="#f18f01" />
<path d="M 68.00 276.97 L 93.83 324.91 L 119.65 320.70 L 145.48 290.46 L 171.30 258.95 L 197.13 263.31 L 222.96 262.58 L 248.78 283.16 L 274.61 258.10 L 300.43 272.93 L 326.26 271.89 L 352.09 278.54 L 377.91 243.62 L 403.74 266.62 L 429.57 256.85 L 455.39 278.05 L 481.22 266.09 L 507.04 246.47 L 532.87 231.72 L 558.70 232.37 L 584.52 244.92 L 610.35 186.13 L 636.17 122.00 L 662.00 132.39" fill="none" stroke="#f18f01" stroke-width="2.4" stroke-linecap="round" stroke-linejoin="round" />
<circle cx="68.00" cy="307.52" r="2.8" fill="#2a9d8f" />
<circle cx="93.83" cy="302.39" r="2.8" fill="#2a9d8f" />
<circle cx="119.65" cy="303.36" r="2.8" fill="#2a9d8f" />
<circle cx="145.48" cy="307.52" r="2.8" fill="#2a9d8f" />
<circle cx="171.30" cy="277.44" r="2.8" fill="#2a9d8f" />
<circle cx="197.13" cy="287.01" r="2.8" fill="#2a9d8f" />
<circle cx="222.96" cy="277.56" r="2.8" fill="#2a9d8f" />
<circle cx="248.78" cy="290.46" r="2.8" fill="#2a9d8f" />
<circle cx="274.61" cy="277.08" r="2.8" fill="#2a9d8f" />
<circle cx="300.43" cy="278.66" r="2.8" fill="#2a9d8f" />
<circle cx="326.26" cy="255.26" r="2.8" fill="#2a9d8f" />
<circle cx="352.09" cy="263.72" r="2.8" fill="#2a9d8f" />
<circle cx="377.91" cy="255.91" r="2.8" fill="#2a9d8f" />
<circle cx="403.74" cy="243.34" r="2.8" fill="#2a9d8f" />
<circle cx="429.57" cy="238.04" r="2.8" fill="#2a9d8f" />
<circle cx="455.39" cy="248.19" r="2.8" fill="#2a9d8f" />
<circle cx="481.22" cy="257.47" r="2.8" fill="#2a9d8f" />
<circle cx="507.04" cy="253.85" r="2.8" fill="#2a9d8f" />
<circle cx="532.87" cy="239.65" r="2.8" fill="#2a9d8f" />
<circle cx="558.70" cy="237.16" r="2.8" fill="#2a9d8f" />
<circle cx="584.52" cy="244.48" r="2.8" fill="#2a9d8f" />
<circle cx="610.35" cy="211.81" r="2.8" fill="#2a9d8f" />
<circle cx="636.17" cy="177.31" r="2.8" fill="#2a9d8f" />
<circle cx="662.00" cy="191.90" r="2.8" fill="#2a9d8f" />
<path d="M 68.00 307.52 L 93.83 302.39 L 119.65 303.36 L 145.48 307.52 L 171.30 277.44 L 197.13 287.01 L 222.96 277.56 L 248.78 290.46 L 274.61 277.08 L 300.43 278.66 L 326.26 255.26 L 352.09 263.72 L 377.91 255.91 L 403.74 243.34 L 429.57 238.04 L 455.39 248.19 L 481.22 257.47 L 507.04 253.85 L 532.87 239.65 L 558.70 237.16 L 584.52 244.48 L 610.35 211.81 L 636.17 177.31 L 662.00 191.90" fill="none" stroke="#2a9d8f" stroke-width="2.4" stroke-linecap="round" stroke-linejoin="round" />
<text x="34.0" y="261.66666666666663" transform="rotate(-90 34.0 261.66666666666663)" text-anchor="middle" font-size="11" font-family="sans-serif" fill="#5a6773">Mean reasoning tokens</text>
<rect x="702.0" y="90.0" width="658.0" height="343.3333333333333" rx="10" fill="#ffffff" stroke="#d6dee8" />
<text x="1031.0" y="110.0" text-anchor="middle" font-size="14" font-weight="600" font-family="sans-serif" fill="#1d2630">Boolean Literal True Base</text>
<line x1="750.0" y1="377.3333333333333" x2="1344.0" y2="377.3333333333333" stroke="#ebeff5" stroke-width="1" />
<text x="742.0" y="381.3333333333333" text-anchor="end" font-size="11" font-family="sans-serif" fill="#5a6773">10</text>
<line x1="750.0" y1="319.7121446527747" x2="1344.0" y2="319.7121446527747" stroke="#ebeff5" stroke-width="1" />
<text x="742.0" y="323.7121446527747" text-anchor="end" font-size="11" font-family="sans-serif" fill="#5a6773">100</text>
<line x1="750.0" y1="239.8210162441183" x2="1344.0" y2="239.8210162441183" stroke="#ebeff5" stroke-width="1" />
<text x="742.0" y="243.8210162441183" text-anchor="end" font-size="11" font-family="sans-serif" fill="#5a6773">1000</text>
<line x1="750.0" y1="159.92988783546187" x2="1344.0" y2="159.92988783546187" stroke="#ebeff5" stroke-width="1" />
<text x="742.0" y="163.92988783546187" text-anchor="end" font-size="11" font-family="sans-serif" fill="#5a6773">10000</text>
<line x1="750.0" y1="80.03875942680543" x2="1344.0" y2="80.03875942680543" stroke="#ebeff5" stroke-width="1" />
<text x="742.0" y="84.03875942680543" text-anchor="end" font-size="11" font-family="sans-serif" fill="#5a6773">100000</text>
<line x1="750.0" y1="122.0" x2="750.0" y2="377.3333333333333" stroke="#8fa0b4" />
<line x1="750.0" y1="377.3333333333333" x2="1344.0" y2="377.3333333333333" stroke="#8fa0b4" />
<line x1="750.0" y1="377.3333333333333" x2="750.0" y2="381.3333333333333" stroke="#8fa0b4" />
<text x="750.0" y="395.3333333333333" text-anchor="middle" font-size="10" font-family="sans-serif" fill="#5a6773">0</text>
<line x1="775.8260869565217" y1="377.3333333333333" x2="775.8260869565217" y2="381.3333333333333" stroke="#8fa0b4" />
<text x="775.8260869565217" y="395.3333333333333" text-anchor="middle" font-size="10" font-family="sans-serif" fill="#5a6773">1</text>
<line x1="801.6521739130435" y1="377.3333333333333" x2="801.6521739130435" y2="381.3333333333333" stroke="#8fa0b4" />
<text x="801.6521739130435" y="395.3333333333333" text-anchor="middle" font-size="10" font-family="sans-serif" fill="#5a6773">2</text>
<line x1="827.4782608695652" y1="377.3333333333333" x2="827.4782608695652" y2="381.3333333333333" stroke="#8fa0b4" />
<text x="827.4782608695652" y="395.3333333333333" text-anchor="middle" font-size="10" font-family="sans-serif" fill="#5a6773">3</text>
<line x1="853.304347826087" y1="377.3333333333333" x2="853.304347826087" y2="381.3333333333333" stroke="#8fa0b4" />
<text x="853.304347826087" y="395.3333333333333" text-anchor="middle" font-size="10" font-family="sans-serif" fill="#5a6773">4</text>
<line x1="879.1304347826087" y1="377.3333333333333" x2="879.1304347826087" y2="381.3333333333333" stroke="#8fa0b4" />
<text x="879.1304347826087" y="395.3333333333333" text-anchor="middle" font-size="10" font-family="sans-serif" fill="#5a6773">5</text>
<line x1="904.9565217391305" y1="377.3333333333333" x2="904.9565217391305" y2="381.3333333333333" stroke="#8fa0b4" />
<text x="904.9565217391305" y="395.3333333333333" text-anchor="middle" font-size="10" font-family="sans-serif" fill="#5a6773">6</text>
<line x1="930.7826086956521" y1="377.3333333333333" x2="930.7826086956521" y2="381.3333333333333" stroke="#8fa0b4" />
<text x="930.7826086956521" y="395.3333333333333" text-anchor="middle" font-size="10" font-family="sans-serif" fill="#5a6773">7</text>
<line x1="956.6086956521739" y1="377.3333333333333" x2="956.6086956521739" y2="381.3333333333333" stroke="#8fa0b4" />
<text x="956.6086956521739" y="395.3333333333333" text-anchor="middle" font-size="10" font-family="sans-serif" fill="#5a6773">8</text>
<line x1="982.4347826086956" y1="377.3333333333333" x2="982.4347826086956" y2="381.3333333333333" stroke="#8fa0b4" />
<text x="982.4347826086956" y="395.3333333333333" text-anchor="middle" font-size="10" font-family="sans-serif" fill="#5a6773">9</text>
<line x1="1008.2608695652174" y1="377.3333333333333" x2="1008.2608695652174" y2="381.3333333333333" stroke="#8fa0b4" />
<text x="1008.2608695652174" y="395.3333333333333" text-anchor="middle" font-size="10" font-family="sans-serif" fill="#5a6773">10</text>
<line x1="1034.086956521739" y1="377.3333333333333" x2="1034.086956521739" y2="381.3333333333333" stroke="#8fa0b4" />
<text x="1034.086956521739" y="395.3333333333333" text-anchor="middle" font-size="10" font-family="sans-serif" fill="#5a6773">11</text>
<line x1="1059.913043478261" y1="377.3333333333333" x2="1059.913043478261" y2="381.3333333333333" stroke="#8fa0b4" />
<text x="1059.913043478261" y="395.3333333333333" text-anchor="middle" font-size="10" font-family="sans-serif" fill="#5a6773">12</text>
<line x1="1085.7391304347825" y1="377.3333333333333" x2="1085.7391304347825" y2="381.3333333333333" stroke="#8fa0b4" />
<text x="1085.7391304347825" y="395.3333333333333" text-anchor="middle" font-size="10" font-family="sans-serif" fill="#5a6773">13</text>
<line x1="1111.5652173913043" y1="377.3333333333333" x2="1111.5652173913043" y2="381.3333333333333" stroke="#8fa0b4" />
<text x="1111.5652173913043" y="395.3333333333333" text-anchor="middle" font-size="10" font-family="sans-serif" fill="#5a6773">14</text>
<line x1="1137.391304347826" y1="377.3333333333333" x2="1137.391304347826" y2="381.3333333333333" stroke="#8fa0b4" />
<text x="1137.391304347826" y="395.3333333333333" text-anchor="middle" font-size="10" font-family="sans-serif" fill="#5a6773">15</text>
<line x1="1163.2173913043478" y1="377.3333333333333" x2="1163.2173913043478" y2="381.3333333333333" stroke="#8fa0b4" />
<text x="1163.2173913043478" y="395.3333333333333" text-anchor="middle" font-size="10" font-family="sans-serif" fill="#5a6773">16</text>
<line x1="1189.0434782608695" y1="377.3333333333333" x2="1189.0434782608695" y2="381.3333333333333" stroke="#8fa0b4" />
<text x="1189.0434782608695" y="395.3333333333333" text-anchor="middle" font-size="10" font-family="sans-serif" fill="#5a6773">17</text>
<line x1="1214.8695652173913" y1="377.3333333333333" x2="1214.8695652173913" y2="381.3333333333333" stroke="#8fa0b4" />
<text x="1214.8695652173913" y="395.3333333333333" text-anchor="middle" font-size="10" font-family="sans-serif" fill="#5a6773">18</text>
<line x1="1240.695652173913" y1="377.3333333333333" x2="1240.695652173913" y2="381.3333333333333" stroke="#8fa0b4" />
<text x="1240.695652173913" y="395.3333333333333" text-anchor="middle" font-size="10" font-family="sans-serif" fill="#5a6773">19</text>
<line x1="1266.5217391304348" y1="377.3333333333333" x2="1266.5217391304348" y2="381.3333333333333" stroke="#8fa0b4" />
<text x="1266.5217391304348" y="395.3333333333333" text-anchor="middle" font-size="10" font-family="sans-serif" fill="#5a6773">20</text>
<line x1="1292.3478260869565" y1="377.3333333333333" x2="1292.3478260869565" y2="381.3333333333333" stroke="#8fa0b4" />
<text x="1292.3478260869565" y="395.3333333333333" text-anchor="middle" font-size="10" font-family="sans-serif" fill="#5a6773">50</text>
<line x1="1318.1739130434783" y1="377.3333333333333" x2="1318.1739130434783" y2="381.3333333333333" stroke="#8fa0b4" />
<text x="1318.1739130434783" y="395.3333333333333" text-anchor="middle" font-size="10" font-family="sans-serif" fill="#5a6773">51</text>
<line x1="1344.0" y1="377.3333333333333" x2="1344.0" y2="381.3333333333333" stroke="#8fa0b4" />
<text x="1344.0" y="395.3333333333333" text-anchor="middle" font-size="10" font-family="sans-serif" fill="#5a6773">100</text>
<circle cx="750.00" cy="346.65" r="2.8" fill="#0b3c5d" />
<circle cx="775.83" cy="309.30" r="2.8" fill="#0b3c5d" />
<circle cx="801.65" cy="353.28" r="2.8" fill="#0b3c5d" />
<circle cx="827.48" cy="321.49" r="2.8" fill="#0b3c5d" />
<circle cx="853.30" cy="327.89" r="2.8" fill="#0b3c5d" />
<circle cx="879.13" cy="322.61" r="2.8" fill="#0b3c5d" />
<circle cx="904.96" cy="325.76" r="2.8" fill="#0b3c5d" />
<circle cx="930.78" cy="320.41" r="2.8" fill="#0b3c5d" />
<circle cx="956.61" cy="324.95" r="2.8" fill="#0b3c5d" />
<circle cx="982.43" cy="316.41" r="2.8" fill="#0b3c5d" />
<circle cx="1008.26" cy="306.34" r="2.8" fill="#0b3c5d" />
<circle cx="1034.09" cy="305.64" r="2.8" fill="#0b3c5d" />
<circle cx="1059.91" cy="309.56" r="2.8" fill="#0b3c5d" />
<circle cx="1085.74" cy="295.32" r="2.8" fill="#0b3c5d" />
<circle cx="1111.57" cy="310.34" r="2.8" fill="#0b3c5d" />
<circle cx="1137.39" cy="295.84" r="2.8" fill="#0b3c5d" />
<circle cx="1163.22" cy="300.69" r="2.8" fill="#0b3c5d" />
<circle cx="1189.04" cy="281.13" r="2.8" fill="#0b3c5d" />
<circle cx="1214.87" cy="297.63" r="2.8" fill="#0b3c5d" />
<circle cx="1240.70" cy="260.94" r="2.8" fill="#0b3c5d" />
<circle cx="1266.52" cy="300.49" r="2.8" fill="#0b3c5d" />
<circle cx="1292.35" cy="246.71" r="2.8" fill="#0b3c5d" />
<circle cx="1318.17" cy="222.11" r="2.8" fill="#0b3c5d" />
<circle cx="1344.00" cy="190.96" r="2.8" fill="#0b3c5d" />
<path d="M 750.00 346.65 L 775.83 309.30 L 801.65 353.28 L 827.48 321.49 L 853.30 327.89 L 879.13 322.61 L 904.96 325.76 L 930.78 320.41 L 956.61 324.95 L 982.43 316.41 L 1008.26 306.34 L 1034.09 305.64 L 1059.91 309.56 L 1085.74 295.32 L 1111.57 310.34 L 1137.39 295.84 L 1163.22 300.69 L 1189.04 281.13 L 1214.87 297.63 L 1240.70 260.94 L 1266.52 300.49 L 1292.35 246.71 L 1318.17 222.11 L 1344.00 190.96" fill="none" stroke="#0b3c5d" stroke-width="2.4" stroke-linecap="round" stroke-linejoin="round" />
<circle cx="1059.91" cy="366.45" r="2.8" fill="#b33f62" />
<circle cx="1137.39" cy="377.33" r="2.8" fill="#b33f62" />
<circle cx="1163.22" cy="359.25" r="2.8" fill="#b33f62" />
<circle cx="1214.87" cy="361.49" r="2.8" fill="#b33f62" />
<circle cx="1292.35" cy="311.15" r="2.8" fill="#b33f62" />
<circle cx="1318.17" cy="289.77" r="2.8" fill="#b33f62" />
<circle cx="1344.00" cy="261.39" r="2.8" fill="#b33f62" />
<path d="M 1059.91 366.45 L 1137.39 377.33 L 1163.22 359.25 L 1214.87 361.49 L 1292.35 311.15 L 1318.17 289.77 L 1344.00 261.39" fill="none" stroke="#b33f62" stroke-width="2.4" stroke-linecap="round" stroke-linejoin="round" />
<circle cx="750.00" cy="326.18" r="2.8" fill="#f18f01" />
<circle cx="775.83" cy="307.06" r="2.8" fill="#f18f01" />
<circle cx="801.65" cy="321.13" r="2.8" fill="#f18f01" />
<circle cx="827.48" cy="313.68" r="2.8" fill="#f18f01" />
<circle cx="853.30" cy="275.17" r="2.8" fill="#f18f01" />
<circle cx="879.13" cy="296.19" r="2.8" fill="#f18f01" />
<circle cx="904.96" cy="287.92" r="2.8" fill="#f18f01" />
<circle cx="930.78" cy="289.92" r="2.8" fill="#f18f01" />
<circle cx="956.61" cy="276.35" r="2.8" fill="#f18f01" />
<circle cx="982.43" cy="288.20" r="2.8" fill="#f18f01" />
<circle cx="1008.26" cy="256.24" r="2.8" fill="#f18f01" />
<circle cx="1034.09" cy="224.39" r="2.8" fill="#f18f01" />
<circle cx="1059.91" cy="252.80" r="2.8" fill="#f18f01" />
<circle cx="1085.74" cy="261.07" r="2.8" fill="#f18f01" />
<circle cx="1111.57" cy="276.25" r="2.8" fill="#f18f01" />
<circle cx="1137.39" cy="283.13" r="2.8" fill="#f18f01" />
<circle cx="1163.22" cy="278.08" r="2.8" fill="#f18f01" />
<circle cx="1189.04" cy="252.00" r="2.8" fill="#f18f01" />
<circle cx="1214.87" cy="245.54" r="2.8" fill="#f18f01" />
<circle cx="1240.70" cy="251.32" r="2.8" fill="#f18f01" />
<circle cx="1266.52" cy="259.51" r="2.8" fill="#f18f01" />
<circle cx="1292.35" cy="173.66" r="2.8" fill="#f18f01" />
<circle cx="1318.17" cy="183.12" r="2.8" fill="#f18f01" />
<circle cx="1344.00" cy="122.00" r="2.8" fill="#f18f01" />
<path d="M 750.00 326.18 L 775.83 307.06 L 801.65 321.13 L 827.48 313.68 L 853.30 275.17 L 879.13 296.19 L 904.96 287.92 L 930.78 289.92 L 956.61 276.35 L 982.43 288.20 L 1008.26 256.24 L 1034.09 224.39 L 1059.91 252.80 L 1085.74 261.07 L 1111.57 276.25 L 1137.39 283.13 L 1163.22 278.08 L 1189.04 252.00 L 1214.87 245.54 L 1240.70 251.32 L 1266.52 259.51 L 1292.35 173.66 L 1318.17 183.12 L 1344.00 122.00" fill="none" stroke="#f18f01" stroke-width="2.4" stroke-linecap="round" stroke-linejoin="round" />
<circle cx="750.00" cy="308.79" r="2.8" fill="#2a9d8f" />
<circle cx="775.83" cy="273.30" r="2.8" fill="#2a9d8f" />
<circle cx="801.65" cy="309.30" r="2.8" fill="#2a9d8f" />
<circle cx="827.48" cy="310.08" r="2.8" fill="#2a9d8f" />
<circle cx="853.30" cy="295.49" r="2.8" fill="#2a9d8f" />
<circle cx="879.13" cy="278.39" r="2.8" fill="#2a9d8f" />
<circle cx="904.96" cy="284.36" r="2.8" fill="#2a9d8f" />
<circle cx="930.78" cy="285.64" r="2.8" fill="#2a9d8f" />
<circle cx="956.61" cy="283.25" r="2.8" fill="#2a9d8f" />
<circle cx="982.43" cy="292.36" r="2.8" fill="#2a9d8f" />
<circle cx="1008.26" cy="272.14" r="2.8" fill="#2a9d8f" />
<circle cx="1034.09" cy="262.31" r="2.8" fill="#2a9d8f" />
<circle cx="1059.91" cy="273.85" r="2.8" fill="#2a9d8f" />
<circle cx="1085.74" cy="263.59" r="2.8" fill="#2a9d8f" />
<circle cx="1111.57" cy="257.31" r="2.8" fill="#2a9d8f" />
<circle cx="1137.39" cy="246.71" r="2.8" fill="#2a9d8f" />
<circle cx="1163.22" cy="260.25" r="2.8" fill="#2a9d8f" />
<circle cx="1189.04" cy="250.74" r="2.8" fill="#2a9d8f" />
<circle cx="1214.87" cy="252.10" r="2.8" fill="#2a9d8f" />
<circle cx="1240.70" cy="248.89" r="2.8" fill="#2a9d8f" />
<circle cx="1266.52" cy="235.80" r="2.8" fill="#2a9d8f" />
<circle cx="1292.35" cy="231.31" r="2.8" fill="#2a9d8f" />
<circle cx="1318.17" cy="214.46" r="2.8" fill="#2a9d8f" />
<circle cx="1344.00" cy="206.42" r="2.8" fill="#2a9d8f" />
<path d="M 750.00 308.79 L 775.83 273.30 L 801.65 309.30 L 827.48 310.08 L 853.30 295.49 L 879.13 278.39 L 904.96 284.36 L 930.78 285.64 L 956.61 283.25 L 982.43 292.36 L 1008.26 272.14 L 1034.09 262.31 L 1059.91 273.85 L 1085.74 263.59 L 1111.57 257.31 L 1137.39 246.71 L 1163.22 260.25 L 1189.04 250.74 L 1214.87 252.10 L 1240.70 248.89 L 1266.52 235.80 L 1292.35 231.31 L 1318.17 214.46 L 1344.00 206.42" fill="none" stroke="#2a9d8f" stroke-width="2.4" stroke-linecap="round" stroke-linejoin="round" />
<text x="716.0" y="261.66666666666663" transform="rotate(-90 716.0 261.66666666666663)" text-anchor="middle" font-size="11" font-family="sans-serif" fill="#5a6773">Mean reasoning tokens</text>
<rect x="20.0" y="457.3333333333333" width="658.0" height="343.3333333333333" rx="10" fill="#ffffff" stroke="#d6dee8" />
<text x="349.0" y="477.3333333333333" text-anchor="middle" font-size="14" font-weight="600" font-family="sans-serif" fill="#1d2630">Boolean Counted False Base</text>
<line x1="68.0" y1="744.6666666666666" x2="662.0" y2="744.6666666666666" stroke="#ebeff5" stroke-width="1" />
<text x="60.0" y="748.6666666666666" text-anchor="end" font-size="11" font-family="sans-serif" fill="#5a6773">10</text>
<line x1="68.0" y1="651.6454997343392" x2="662.0" y2="651.6454997343392" stroke="#ebeff5" stroke-width="1" />
<text x="60.0" y="655.6454997343392" text-anchor="end" font-size="11" font-family="sans-serif" fill="#5a6773">100</text>
<line x1="68.0" y1="324.10232326571077" x2="662.0" y2="324.10232326571077" stroke="#ebeff5" stroke-width="1" />
<text x="60.0" y="328.10232326571077" text-anchor="end" font-size="11" font-family="sans-serif" fill="#5a6773">1000</text>
<line x1="68.0" y1="489.3333333333333" x2="68.0" y2="744.6666666666666" stroke="#8fa0b4" />
<line x1="68.0" y1="744.6666666666666" x2="662.0" y2="744.6666666666666" stroke="#8fa0b4" />
<line x1="68.0" y1="744.6666666666666" x2="68.0" y2="748.6666666666666" stroke="#8fa0b4" />
<text x="68.0" y="762.6666666666666" text-anchor="middle" font-size="10" font-family="sans-serif" fill="#5a6773">50</text>
<line x1="134.0" y1="744.6666666666666" x2="134.0" y2="748.6666666666666" stroke="#8fa0b4" />
<text x="134.0" y="762.6666666666666" text-anchor="middle" font-size="10" font-family="sans-serif" fill="#5a6773">51</text>
<line x1="200.0" y1="744.6666666666666" x2="200.0" y2="748.6666666666666" stroke="#8fa0b4" />
<text x="200.0" y="762.6666666666666" text-anchor="middle" font-size="10" font-family="sans-serif" fill="#5a6773">100</text>
<line x1="266.0" y1="744.6666666666666" x2="266.0" y2="748.6666666666666" stroke="#8fa0b4" />
<text x="266.0" y="762.6666666666666" text-anchor="middle" font-size="10" font-family="sans-serif" fill="#5a6773">101</text>
<line x1="332.0" y1="744.6666666666666" x2="332.0" y2="748.6666666666666" stroke="#8fa0b4" />
<text x="332.0" y="762.6666666666666" text-anchor="middle" font-size="10" font-family="sans-serif" fill="#5a6773">500</text>
<line x1="398.0" y1="744.6666666666666" x2="398.0" y2="748.6666666666666" stroke="#8fa0b4" />
<text x="398.0" y="762.6666666666666" text-anchor="middle" font-size="10" font-family="sans-serif" fill="#5a6773">501</text>
<line x1="464.0" y1="744.6666666666666" x2="464.0" y2="748.6666666666666" stroke="#8fa0b4" />
<text x="464.0" y="762.6666666666666" text-anchor="middle" font-size="10" font-family="sans-serif" fill="#5a6773">1000</text>
<line x1="530.0" y1="744.6666666666666" x2="530.0" y2="748.6666666666666" stroke="#8fa0b4" />
<text x="530.0" y="762.6666666666666" text-anchor="middle" font-size="10" font-family="sans-serif" fill="#5a6773">1001</text>
<line x1="596.0" y1="744.6666666666666" x2="596.0" y2="748.6666666666666" stroke="#8fa0b4" />
<text x="596.0" y="762.6666666666666" text-anchor="middle" font-size="10" font-family="sans-serif" fill="#5a6773">10000</text>
<line x1="662.0" y1="744.6666666666666" x2="662.0" y2="748.6666666666666" stroke="#8fa0b4" />
<text x="662.0" y="762.6666666666666" text-anchor="middle" font-size="10" font-family="sans-serif" fill="#5a6773">10001</text>
<circle cx="68.00" cy="719.65" r="2.8" fill="#0b3c5d" />
<circle cx="134.00" cy="715.13" r="2.8" fill="#0b3c5d" />
<circle cx="200.00" cy="715.13" r="2.8" fill="#0b3c5d" />
<circle cx="266.00" cy="744.67" r="2.8" fill="#0b3c5d" />
<circle cx="332.00" cy="726.70" r="2.8" fill="#0b3c5d" />
<circle cx="398.00" cy="741.96" r="2.8" fill="#0b3c5d" />
<circle cx="464.00" cy="700.36" r="2.8" fill="#0b3c5d" />
<circle cx="530.00" cy="721.96" r="2.8" fill="#0b3c5d" />
<circle cx="596.00" cy="734.12" r="2.8" fill="#0b3c5d" />
<circle cx="662.00" cy="739.30" r="2.8" fill="#0b3c5d" />
<path d="M 68.00 719.65 L 134.00 715.13 L 200.00 715.13 L 266.00 744.67 L 332.00 726.70 L 398.00 741.96 L 464.00 700.36 L 530.00 721.96 L 596.00 734.12 L 662.00 739.30" fill="none" stroke="#0b3c5d" stroke-width="2.4" stroke-linecap="round" stroke-linejoin="round" />
<circle cx="68.00" cy="562.61" r="2.8" fill="#f18f01" />
<circle cx="134.00" cy="587.48" r="2.8" fill="#f18f01" />
<circle cx="200.00" cy="593.97" r="2.8" fill="#f18f01" />
<circle cx="266.00" cy="573.68" r="2.8" fill="#f18f01" />
<circle cx="332.00" cy="591.15" r="2.8" fill="#f18f01" />
<circle cx="398.00" cy="607.91" r="2.8" fill="#f18f01" />
<circle cx="464.00" cy="594.92" r="2.8" fill="#f18f01" />
<circle cx="530.00" cy="598.79" r="2.8" fill="#f18f01" />
<circle cx="596.00" cy="536.29" r="2.8" fill="#f18f01" />
<circle cx="662.00" cy="610.01" r="2.8" fill="#f18f01" />
<path d="M 68.00 562.61 L 134.00 587.48 L 200.00 593.97 L 266.00 573.68 L 332.00 591.15 L 398.00 607.91 L 464.00 594.92 L 530.00 598.79 L 596.00 536.29 L 662.00 610.01" fill="none" stroke="#f18f01" stroke-width="2.4" stroke-linecap="round" stroke-linejoin="round" />
<circle cx="68.00" cy="523.02" r="2.8" fill="#2a9d8f" />
<circle cx="134.00" cy="547.47" r="2.8" fill="#2a9d8f" />
<circle cx="200.00" cy="513.55" r="2.8" fill="#2a9d8f" />
<circle cx="266.00" cy="498.24" r="2.8" fill="#2a9d8f" />
<circle cx="332.00" cy="521.87" r="2.8" fill="#2a9d8f" />
<circle cx="398.00" cy="532.55" r="2.8" fill="#2a9d8f" />
<circle cx="464.00" cy="489.33" r="2.8" fill="#2a9d8f" />
<circle cx="530.00" cy="523.60" r="2.8" fill="#2a9d8f" />
<circle cx="596.00" cy="515.72" r="2.8" fill="#2a9d8f" />
<circle cx="662.00" cy="493.95" r="2.8" fill="#2a9d8f" />
<path d="M 68.00 523.02 L 134.00 547.47 L 200.00 513.55 L 266.00 498.24 L 332.00 521.87 L 398.00 532.55 L 464.00 489.33 L 530.00 523.60 L 596.00 515.72 L 662.00 493.95" fill="none" stroke="#2a9d8f" stroke-width="2.4" stroke-linecap="round" stroke-linejoin="round" />
<text x="34.0" y="629.0" transform="rotate(-90 34.0 629.0)" text-anchor="middle" font-size="11" font-family="sans-serif" fill="#5a6773">Mean reasoning tokens</text>
<rect x="702.0" y="457.3333333333333" width="658.0" height="343.3333333333333" rx="10" fill="#ffffff" stroke="#d6dee8" />
<text x="1031.0" y="477.3333333333333" text-anchor="middle" font-size="14" font-weight="600" font-family="sans-serif" fill="#1d2630">Sentiment Literal</text>
<line x1="750.0" y1="744.6666666666666" x2="1344.0" y2="744.6666666666666" stroke="#ebeff5" stroke-width="1" />
<text x="742.0" y="748.6666666666666" text-anchor="end" font-size="11" font-family="sans-serif" fill="#5a6773">10</text>
<line x1="750.0" y1="693.0470545370972" x2="1344.0" y2="693.0470545370972" stroke="#ebeff5" stroke-width="1" />
<text x="742.0" y="697.0470545370972" text-anchor="end" font-size="11" font-family="sans-serif" fill="#5a6773">100</text>
<line x1="750.0" y1="599.6756843155233" x2="1344.0" y2="599.6756843155233" stroke="#ebeff5" stroke-width="1" />
<text x="742.0" y="603.6756843155233" text-anchor="end" font-size="11" font-family="sans-serif" fill="#5a6773">1000</text>
<line x1="750.0" y1="506.3043140939494" x2="1344.0" y2="506.3043140939494" stroke="#ebeff5" stroke-width="1" />
<text x="742.0" y="510.3043140939494" text-anchor="end" font-size="11" font-family="sans-serif" fill="#5a6773">10000</text>
<line x1="750.0" y1="412.9329438723755" x2="1344.0" y2="412.9329438723755" stroke="#ebeff5" stroke-width="1" />
<text x="742.0" y="416.9329438723755" text-anchor="end" font-size="11" font-family="sans-serif" fill="#5a6773">100000</text>
<line x1="750.0" y1="489.3333333333333" x2="750.0" y2="744.6666666666666" stroke="#8fa0b4" />
<line x1="750.0" y1="744.6666666666666" x2="1344.0" y2="744.6666666666666" stroke="#8fa0b4" />
<line x1="750.0" y1="744.6666666666666" x2="750.0" y2="748.6666666666666" stroke="#8fa0b4" />
<text x="750.0" y="762.6666666666666" text-anchor="middle" font-size="10" font-family="sans-serif" fill="#5a6773">0</text>
<line x1="834.8571428571429" y1="744.6666666666666" x2="834.8571428571429" y2="748.6666666666666" stroke="#8fa0b4" />
<text x="834.8571428571429" y="762.6666666666666" text-anchor="middle" font-size="10" font-family="sans-serif" fill="#5a6773">1</text>
<line x1="919.7142857142858" y1="744.6666666666666" x2="919.7142857142858" y2="748.6666666666666" stroke="#8fa0b4" />
<text x="919.7142857142858" y="762.6666666666666" text-anchor="middle" font-size="10" font-family="sans-serif" fill="#5a6773">2</text>
<line x1="1004.5714285714286" y1="744.6666666666666" x2="1004.5714285714286" y2="748.6666666666666" stroke="#8fa0b4" />
<text x="1004.5714285714286" y="762.6666666666666" text-anchor="middle" font-size="10" font-family="sans-serif" fill="#5a6773">5</text>
<line x1="1089.4285714285716" y1="744.6666666666666" x2="1089.4285714285716" y2="748.6666666666666" stroke="#8fa0b4" />
<text x="1089.4285714285716" y="762.6666666666666" text-anchor="middle" font-size="10" font-family="sans-serif" fill="#5a6773">10</text>
<line x1="1174.2857142857142" y1="744.6666666666666" x2="1174.2857142857142" y2="748.6666666666666" stroke="#8fa0b4" />
<text x="1174.2857142857142" y="762.6666666666666" text-anchor="middle" font-size="10" font-family="sans-serif" fill="#5a6773">20</text>
<line x1="1259.142857142857" y1="744.6666666666666" x2="1259.142857142857" y2="748.6666666666666" stroke="#8fa0b4" />
<text x="1259.142857142857" y="762.6666666666666" text-anchor="middle" font-size="10" font-family="sans-serif" fill="#5a6773">50</text>
<line x1="1344.0" y1="744.6666666666666" x2="1344.0" y2="748.6666666666666" stroke="#8fa0b4" />
<text x="1344.0" y="762.6666666666666" text-anchor="middle" font-size="10" font-family="sans-serif" fill="#5a6773">51</text>
<circle cx="750.00" cy="727.27" r="2.8" fill="#0b3c5d" />
<circle cx="834.86" cy="724.54" r="2.8" fill="#0b3c5d" />
<circle cx="919.71" cy="723.66" r="2.8" fill="#0b3c5d" />
<circle cx="1004.57" cy="702.10" r="2.8" fill="#0b3c5d" />
<circle cx="1089.43" cy="683.68" r="2.8" fill="#0b3c5d" />
<circle cx="1174.29" cy="663.35" r="2.8" fill="#0b3c5d" />
<circle cx="1259.14" cy="629.86" r="2.8" fill="#0b3c5d" />
<circle cx="1344.00" cy="594.90" r="2.8" fill="#0b3c5d" />
<path d="M 750.00 727.27 L 834.86 724.54 L 919.71 723.66 L 1004.57 702.10 L 1089.43 683.68 L 1174.29 663.35 L 1259.14 629.86 L 1344.00 594.90" fill="none" stroke="#0b3c5d" stroke-width="2.4" stroke-linecap="round" stroke-linejoin="round" />
<circle cx="1089.43" cy="739.25" r="2.8" fill="#b33f62" />
<circle cx="1259.14" cy="744.67" r="2.8" fill="#b33f62" />
<circle cx="1344.00" cy="733.36" r="2.8" fill="#b33f62" />
<path d="M 1089.43 739.25 L 1259.14 744.67 L 1344.00 733.36" fill="none" stroke="#b33f62" stroke-width="2.4" stroke-linecap="round" stroke-linejoin="round" />
<circle cx="750.00" cy="674.24" r="2.8" fill="#f18f01" />
<circle cx="834.86" cy="688.45" r="2.8" fill="#f18f01" />
<circle cx="919.71" cy="691.85" r="2.8" fill="#f18f01" />
<circle cx="1004.57" cy="648.77" r="2.8" fill="#f18f01" />
<circle cx="1089.43" cy="635.83" r="2.8" fill="#f18f01" />
<circle cx="1174.29" cy="650.72" r="2.8" fill="#f18f01" />
<circle cx="1259.14" cy="489.33" r="2.8" fill="#f18f01" />
<circle cx="1344.00" cy="556.71" r="2.8" fill="#f18f01" />
<path d="M 750.00 674.24 L 834.86 688.45 L 919.71 691.85 L 1004.57 648.77 L 1089.43 635.83 L 1174.29 650.72 L 1259.14 489.33 L 1344.00 556.71" fill="none" stroke="#f18f01" stroke-width="2.4" stroke-linecap="round" stroke-linejoin="round" />
<circle cx="750.00" cy="681.18" r="2.8" fill="#2a9d8f" />
<circle cx="834.86" cy="690.30" r="2.8" fill="#2a9d8f" />
<circle cx="919.71" cy="687.38" r="2.8" fill="#2a9d8f" />
<circle cx="1004.57" cy="659.45" r="2.8" fill="#2a9d8f" />
<circle cx="1089.43" cy="639.13" r="2.8" fill="#2a9d8f" />
<circle cx="1174.29" cy="638.28" r="2.8" fill="#2a9d8f" />
<circle cx="1259.14" cy="574.16" r="2.8" fill="#2a9d8f" />
<circle cx="1344.00" cy="550.65" r="2.8" fill="#2a9d8f" />
<path d="M 750.00 681.18 L 834.86 690.30 L 919.71 687.38 L 1004.57 659.45 L 1089.43 639.13 L 1174.29 638.28 L 1259.14 574.16 L 1344.00 550.65" fill="none" stroke="#2a9d8f" stroke-width="2.4" stroke-linecap="round" stroke-linejoin="round" />
<text x="716.0" y="629.0" transform="rotate(-90 716.0 629.0)" text-anchor="middle" font-size="11" font-family="sans-serif" fill="#5a6773">Mean reasoning tokens</text>
<rect x="20.0" y="824.6666666666666" width="658.0" height="343.3333333333333" rx="10" fill="#ffffff" stroke="#d6dee8" />
<text x="349.0" y="844.6666666666666" text-anchor="middle" font-size="14" font-weight="600" font-family="sans-serif" fill="#1d2630">Lock State Literal</text>
<line x1="68.0" y1="1112.0" x2="662.0" y2="1112.0" stroke="#ebeff5" stroke-width="1" />
<text x="60.0" y="1116.0" text-anchor="end" font-size="11" font-family="sans-serif" fill="#5a6773">10</text>
<line x1="68.0" y1="1041.901686933941" x2="662.0" y2="1041.901686933941" stroke="#ebeff5" stroke-width="1" />
<text x="60.0" y="1045.901686933941" text-anchor="end" font-size="11" font-family="sans-serif" fill="#5a6773">100</text>
<line x1="68.0" y1="932.0765731005398" x2="662.0" y2="932.0765731005398" stroke="#ebeff5" stroke-width="1" />
<text x="60.0" y="936.0765731005398" text-anchor="end" font-size="11" font-family="sans-serif" fill="#5a6773">1000</text>
<line x1="68.0" y1="822.2514592671389" x2="662.0" y2="822.2514592671389" stroke="#ebeff5" stroke-width="1" />
<text x="60.0" y="826.2514592671389" text-anchor="end" font-size="11" font-family="sans-serif" fill="#5a6773">10000</text>
<line x1="68.0" y1="856.6666666666666" x2="68.0" y2="1112.0" stroke="#8fa0b4" />
<line x1="68.0" y1="1112.0" x2="662.0" y2="1112.0" stroke="#8fa0b4" />
<line x1="68.0" y1="1112.0" x2="68.0" y2="1116.0" stroke="#8fa0b4" />
<text x="68.0" y="1130.0" text-anchor="middle" font-size="10" font-family="sans-serif" fill="#5a6773">0</text>
<line x1="152.85714285714286" y1="1112.0" x2="152.85714285714286" y2="1116.0" stroke="#8fa0b4" />
<text x="152.85714285714286" y="1130.0" text-anchor="middle" font-size="10" font-family="sans-serif" fill="#5a6773">1</text>
<line x1="237.71428571428572" y1="1112.0" x2="237.71428571428572" y2="1116.0" stroke="#8fa0b4" />
<text x="237.71428571428572" y="1130.0" text-anchor="middle" font-size="10" font-family="sans-serif" fill="#5a6773">2</text>
<line x1="322.57142857142856" y1="1112.0" x2="322.57142857142856" y2="1116.0" stroke="#8fa0b4" />
<text x="322.57142857142856" y="1130.0" text-anchor="middle" font-size="10" font-family="sans-serif" fill="#5a6773">5</text>
<line x1="407.42857142857144" y1="1112.0" x2="407.42857142857144" y2="1116.0" stroke="#8fa0b4" />
<text x="407.42857142857144" y="1130.0" text-anchor="middle" font-size="10" font-family="sans-serif" fill="#5a6773">10</text>
<line x1="492.28571428571433" y1="1112.0" x2="492.28571428571433" y2="1116.0" stroke="#8fa0b4" />
<text x="492.28571428571433" y="1130.0" text-anchor="middle" font-size="10" font-family="sans-serif" fill="#5a6773">20</text>
<line x1="577.1428571428571" y1="1112.0" x2="577.1428571428571" y2="1116.0" stroke="#8fa0b4" />
<text x="577.1428571428571" y="1130.0" text-anchor="middle" font-size="10" font-family="sans-serif" fill="#5a6773">50</text>
<line x1="662.0" y1="1112.0" x2="662.0" y2="1116.0" stroke="#8fa0b4" />
<text x="662.0" y="1130.0" text-anchor="middle" font-size="10" font-family="sans-serif" fill="#5a6773">51</text>
<circle cx="68.00" cy="1089.32" r="2.8" fill="#0b3c5d" />
<circle cx="152.86" cy="1072.18" r="2.8" fill="#0b3c5d" />
<circle cx="237.71" cy="1079.99" r="2.8" fill="#0b3c5d" />
<circle cx="322.57" cy="1036.50" r="2.8" fill="#0b3c5d" />
<circle cx="407.43" cy="1033.60" r="2.8" fill="#0b3c5d" />
<circle cx="492.29" cy="1008.37" r="2.8" fill="#0b3c5d" />
<circle cx="577.14" cy="946.37" r="2.8" fill="#0b3c5d" />
<circle cx="662.00" cy="911.17" r="2.8" fill="#0b3c5d" />
<path d="M 68.00 1089.32 L 152.86 1072.18 L 237.71 1079.99 L 322.57 1036.50 L 407.43 1033.60 L 492.29 1008.37 L 577.14 946.37 L 662.00 911.17" fill="none" stroke="#0b3c5d" stroke-width="2.4" stroke-linecap="round" stroke-linejoin="round" />
<circle cx="662.00" cy="1112.00" r="2.8" fill="#b33f62" />
<path d="M 662.00 1112.00" fill="none" stroke="#b33f62" stroke-width="2.4" stroke-linecap="round" stroke-linejoin="round" />
<circle cx="68.00" cy="1040.03" r="2.8" fill="#f18f01" />
<circle cx="152.86" cy="1051.37" r="2.8" fill="#f18f01" />
<circle cx="237.71" cy="1029.02" r="2.8" fill="#f18f01" />
<circle cx="322.57" cy="1000.95" r="2.8" fill="#f18f01" />
<circle cx="407.43" cy="972.11" r="2.8" fill="#f18f01" />
<circle cx="492.29" cy="1004.30" r="2.8" fill="#f18f01" />
<circle cx="577.14" cy="891.96" r="2.8" fill="#f18f01" />
<circle cx="662.00" cy="856.67" r="2.8" fill="#f18f01" />
<path d="M 68.00 1040.03 L 152.86 1051.37 L 237.71 1029.02 L 322.57 1000.95 L 407.43 972.11 L 492.29 1004.30 L 577.14 891.96 L 662.00 856.67" fill="none" stroke="#f18f01" stroke-width="2.4" stroke-linecap="round" stroke-linejoin="round" />
<circle cx="68.00" cy="1040.49" r="2.8" fill="#2a9d8f" />
<circle cx="152.86" cy="1039.12" r="2.8" fill="#2a9d8f" />
<circle cx="237.71" cy="1023.85" r="2.8" fill="#2a9d8f" />
<circle cx="322.57" cy="1006.06" r="2.8" fill="#2a9d8f" />
<circle cx="407.43" cy="988.71" r="2.8" fill="#2a9d8f" />
<circle cx="492.29" cy="950.96" r="2.8" fill="#2a9d8f" />
<circle cx="577.14" cy="904.90" r="2.8" fill="#2a9d8f" />
<circle cx="662.00" cy="903.36" r="2.8" fill="#2a9d8f" />
<path d="M 68.00 1040.49 L 152.86 1039.12 L 237.71 1023.85 L 322.57 1006.06 L 407.43 988.71 L 492.29 950.96 L 577.14 904.90 L 662.00 903.36" fill="none" stroke="#2a9d8f" stroke-width="2.4" stroke-linecap="round" stroke-linejoin="round" />
<text x="34.0" y="996.3333333333333" transform="rotate(-90 34.0 996.3333333333333)" text-anchor="middle" font-size="11" font-family="sans-serif" fill="#5a6773">Mean reasoning tokens</text>
</svg>